<svg xmlns="http://www.w3.org/2000/svg" viewBox="0 0 44 28" stroke="none" stroke-width="1px"><path d="M4.906.5c-.49.046-.908.506-.906 1V22H.906c-.492.046-.908.506-.906 1v3.5c0 .524.476 1 1 1h42c.524 0 1-.476 1-1v-22c0-.524-.476-1-1-1h-3v-2c0-.524-.476-1-1-1H4.906zM6 2.5h32v1h-7c-.524 0-1 .476-1 1H6v-2zm26 3h10V7H32V5.5zm-26 1h24V22H6V6.5zM32 9h10v9.5H32V9zm0 11.5h10v5H32v-5zm2.406 1.5c-.524.024-.978.523-.953 1.047.025.524.523.978 1.047.953h5c.528.007 1.016-.472 1.016-1s-.487-1.007-1.016-1h-5.094zM2 24h28v1.5H2V24z" fill="#5c6ac4" stroke="none" stroke-width="1px"></path></svg>