<svg xmlns="http://www.w3.org/2000/svg" viewBox="0 0 36 38" stroke="none" fill="#5c6ac4" stroke-width="1px"><path d="M18 38c-1.57 0-2.995-.86-3.766-2.256-.04-.053-.074-.112-.105-.172-.238-.475-.605-1.07-1.015-1.203-.32-.11-.813.015-1.467.36-.065.03-.13.06-.197.08-1.432.662-3.08.5-4.346-.45-1.256-.94-1.91-2.48-1.735-4.06 0-.066.002-.13.013-.2.24-1.55-.065-1.986-1.547-2.226-.07-.012-.14-.03-.208-.053C2.1 27.497.872 26.38.392 24.86c-.476-1.506-.124-3.14.918-4.314.04-.057.084-.112.133-.16 1.07-1.1 1.07-1.67 0-2.77-.05-.05-.095-.106-.133-.164C.27 16.276-.084 14.645.392 13.14c.48-1.52 1.71-2.636 3.24-2.96.066-.025.134-.043.204-.053 1.483-.245 1.786-.682 1.548-2.23-.008-.068-.013-.134-.012-.202-.173-1.58.48-3.118 1.736-4.057 1.27-.95 2.92-1.113 4.354-.445.064.02.127.048.19.078.652.345 1.145.468 1.466.36.41-.13.777-.724 1.012-1.2.03-.062.066-.12.106-.175C15.008.86 16.43 0 18 0c1.572 0 2.998.862 3.77 2.263.036.05.07.107.1.165.235.475.602 1.07 1.013 1.203.317.107.812-.014 1.467-.36.062-.03.126-.056.19-.08 1.434-.664 3.08-.5 4.352.448 1.255.938 1.907 2.476 1.736 4.056 0 .067-.004.134-.014.202-.24 1.55.065 1.987 1.547 2.228.074.012.14.028.21.052 1.53.327 2.76 1.443 3.238 2.96.475 1.508.124 3.142-.92 4.318-.037.056-.08.11-.128.16-1.07 1.1-1.07 1.67 0 2.768.05.05.092.105.13.163 1.04 1.176 1.394 2.808.918 4.315-.48 1.518-1.71 2.636-3.24 2.962-.066.024-.134.04-.205.052-1.482.24-1.785.677-1.546 2.227.01.068.015.137.014.206.174 1.58-.48 3.116-1.734 4.052-1.268.95-2.914 1.114-4.35.448-.066-.02-.13-.048-.192-.08-.656-.343-1.153-.464-1.467-.36-.41.132-.777.727-1.014 1.203-.027.057-.062.113-.1.167C20.996 37.137 19.57 38 18 38zm-1.832-3.662c.037.052.07.107.1.165.34.692 1.004 1.122 1.733 1.122s1.397-.43 1.738-1.122c.027-.057.06-.11.096-.16.628-1.2 1.388-1.93 2.317-2.232.92-.296 1.94-.16 3.118.42.062.02.124.05.182.08.66.348 1.43.29 2.02-.15.605-.452.904-1.22.78-2.002-.01-.066-.015-.132-.014-.197-.34-2.63.78-4.207 3.337-4.693.062-.02.126-.037.192-.048.74-.12 1.343-.646 1.572-1.374.234-.74.042-1.547-.502-2.103-.046-.048-.09-.1-.126-.153-1.775-1.92-1.774-3.865 0-5.784.036-.053.077-.103.124-.15.544-.557.736-1.363.502-2.105-.23-.726-.83-1.252-1.57-1.37-.07-.01-.135-.027-.198-.05-2.553-.486-3.674-2.064-3.334-4.696 0-.064.005-.128.014-.192.125-.783-.175-1.55-.78-2.002-.59-.44-1.363-.498-2.022-.15-.06.032-.12.058-.182.078-1.18.58-2.202.718-3.118.42-.93-.3-1.69-1.032-2.32-2.233-.033-.05-.065-.102-.093-.158-.34-.692-1.006-1.122-1.735-1.122s-1.394.43-1.734 1.122c-.03.058-.063.114-.1.167-.628 1.196-1.386 1.926-2.314 2.227-.916.298-1.94.16-3.12-.422-.062-.02-.122-.046-.18-.076-.66-.347-1.433-.29-2.02.15-.607.452-.907 1.22-.784 2.003.01.063.014.127.014.19.34 2.632-.78 4.212-3.336 4.7-.063.02-.127.037-.195.048-.74.12-1.34.645-1.57 1.374-.235.74-.043 1.547.502 2.103.048.05.09.1.128.156 1.77 1.918 1.77 3.86 0 5.777-.038.056-.08.107-.127.154-.544.557-.737 1.362-.503 2.103.23.73.83 1.256 1.572 1.374.068.013.133.028.196.05 2.553.487 3.674 2.066 3.332 4.7 0 .063-.004.126-.014.19-.124.78.177 1.55.783 2 .586.44 1.36.5 2.02.15.06-.03.12-.057.184-.077 1.178-.58 2.198-.718 3.115-.42.93.298 1.687 1.03 2.317 2.226z" stroke="none" fill="#5c6ac4" stroke-width="1px"></path><path d="M18 20.188c-1.458 0-2.84-.463-3.89-1.304-1.128-.903-1.75-2.127-1.75-3.445 0-1.32.62-2.548 1.75-3.45 2.132-1.708 5.962-1.64 8.194.145.512.41.595 1.157.185 1.668-.41.513-1.16.596-1.67.185-1.34-1.07-3.98-1.144-5.23-.145-.553.443-.858 1.01-.858 1.592s.305 1.148.858 1.59c.633.507 1.488.785 2.408.785.654 0 1.187.532 1.187 1.188s-.532 1.188-1.187 1.188z" stroke="none" fill="#5c6ac4" stroke-width="1px"></path><path d="M17.965 27.247c-1.547 0-3.12-.463-4.27-1.382-.512-.41-.595-1.158-.185-1.67s1.157-.594 1.67-.185c1.338 1.072 3.976 1.144 5.226.145.555-.443.86-1.01.86-1.592s-.305-1.15-.86-1.592c-.63-.502-1.486-.78-2.406-.78-.656 0-1.188-.532-1.188-1.19s.532-1.19 1.188-1.19c1.458.004 2.84.467 3.89 1.306 1.128.903 1.75 2.128 1.75 3.447s-.62 2.546-1.75 3.448c-1.036.83-2.47 1.24-3.925 1.24zM18 13.062c-.656 0-1.188-.532-1.188-1.188v-2.59c0-.656.532-1.188 1.188-1.188s1.188.532 1.188 1.188v2.59c0 .657-.532 1.188-1.188 1.188z" stroke="none" fill="##5c6ac4" stroke-width="1px"></path><path d="M18 29.904c-.656 0-1.188-.53-1.188-1.188v-2.59c0-.658.532-1.19 1.188-1.19s1.188.532 1.188 1.19v2.59c0 .656-.532 1.188-1.188 1.188z" stroke="none" fill="##5c6ac4" stroke-width="1px"></path></svg>