<svg xmlns="http://www.w3.org/2000/svg" viewBox="0 0 50 29" stroke="none" stroke-width="1px"><path d="M1.125.68C.513.68 0 1.3 0 1.807v18.008c0 .59.536 1.125 1.125 1.125h7.878c.59 0 1.125-.537 1.125-1.126V18.69H11.2l5.247 8.41c.73 1.172 2.166 1.71 3.248 1.72 1.258.01 2.28-.728 2.866-1.742.668.436 1.46.616 2.2.616.818 0 1.68-.216 2.445-.74.435-.297.832-.714 1.108-1.23.49.19 1.006.28 1.513.28.807 0 1.664-.218 2.427-.738.448-.305.862-.734 1.143-1.266.682.25 1.416.317 2.058.317 1.45 0 2.57-.953 3.15-2.04.576-1.08.77-2.43.087-3.587h.704v1.125c0 .59.536 1.125 1.125 1.125h7.877c.59 0 1.125-.536 1.125-1.125V1.805C49.525 1.217 48.99.68 48.4.68h-7.88c-.612 0-1.124.62-1.124 1.127V2.93h-4.308L25.59.7c-.09-.022-.18-.02-.268-.02-.278 0-.552.107-.72.247l-2.41 2.005H10.13V1.807c0-.59-.537-1.126-1.126-1.126h-7.88zM2.25 2.933h5.63V18.69H2.25V2.93zm39.393 0h5.627V18.69h-5.627V4.267c.017-.11.017-.224 0-.334v-1zm-16.02.088l9.003 2.13c.086.02.175.034.264.035h4.502V16.44h-2.058l-5.416-9.02c-.297-.498-1.008-.688-1.512-.407l-9.795 5.452c-1.1-.076-1.736-.377-2.072-.72-.365-.375-.528-.867-.528-1.496 0-.568.37-1.16 1.283-1.954l.018-.017 6.314-5.26zM10.128 5.185H19.5l-1.65 1.372-.02.017c-1.122.972-2.074 2.154-2.074 3.675 0 1.05.306 2.185 1.16 3.06.856.875 2.172 1.397 3.87 1.442.2.004.404-.045.58-.143l9.18-5.1s5.9 9.33 6.077 9.654c.15.278.237.595.237.935 0 1.088-.882 1.97-1.97 1.97-.683 0-1.285-.347-1.638-.875-.21-.314-4.728-7.62-4.728-7.62-.32-.495-1.05-.65-1.548-.334-.496.317-.667 1.05-.352 1.548 0 0 4.126 6.33 4.326 6.718.56 1.09-.225 2.24-1.125 2.25-.575.008-1.082-.286-1.387-.725-.19-.273-3.853-6.08-3.853-6.08-.218-.352-.643-.564-1.055-.528-.773.064-1.27 1.09-.844 1.74 0 0 3.005 4.693 3.2 5.03.61 1.045-.238 2.234-1.124 2.25-.628.01-1.176-.343-1.466-.85-.14-.248-2.613-4.76-2.613-4.76-.21-.4-.677-.65-1.125-.598-.74.084-1.222 1.045-.844 1.688 0 0 1.89 2.98 2.11 3.395.558 1.046-.266 2.235-1.125 2.25-.54.01-1.024-.254-1.334-.65-.155-.197-5.598-8.95-5.598-8.95-.2-.32-.573-.526-.95-.528h-1.69V5.183zm-5.065 10.13c-.622 0-1.125.503-1.125 1.124 0 .622.504 1.125 1.125 1.125.622 0 1.126-.504 1.125-1.125 0-.62-.504-1.125-1.125-1.125zm39.392 0c-.622 0-1.125.503-1.125 1.124 0 .622.504 1.125 1.125 1.125.622 0 1.125-.504 1.125-1.125 0-.62-.504-1.125-1.125-1.125z" fill="#5c6ac4" stroke="none" stroke-width="1px"></path></svg>